<svg id="Artwork" xmlns="http://www.w3.org/2000/svg" viewBox="0 0 610.77 129.38">
  <defs>
    <style>
      .cls-1 {
        fill: #5b6770;
      }

      .cls-2, .cls-3 {
        fill: #6e3fa3;
      }

      .cls-3, .cls-4, .cls-5, .cls-6 {
        fill-rule: evenodd;
      }

      .cls-4 {
        fill: #40c2cc;
      }

      .cls-5 {
        fill: #2fa9c0;
      }

      .cls-6 {
        fill: #1d91b5;
      }
    </style>
  </defs>
  <g id="Wordmark">
    <path id="Cloud" class="cls-1" d="M493.43,115.4a13,13,0,0,1,4.08-9.91,13.43,13.43,0,0,1,10-4A14,14,0,0,1,514,103a12.17,12.17,0,0,1,4.69,4.26l-2.38,1.88a10.69,10.69,0,0,0-16.48-1.59,11.54,11.54,0,0,0,0,15.72,10.7,10.7,0,0,0,16.48-1.6l2.38,1.88a12.17,12.17,0,0,1-4.69,4.26,13.75,13.75,0,0,1-6.53,1.55,13.35,13.35,0,0,1-10-4A13,13,0,0,1,493.43,115.4Zm28.75,13.5h3.15V98.2h-3.15Zm22.13-4.66a6.89,6.89,0,0,1-5.14,2.17,6.79,6.79,0,0,1-5.1-2.15A7.36,7.36,0,0,1,532,119a7.49,7.49,0,0,1,2.06-5.39,7.2,7.2,0,0,1,10.18-.1.94.94,0,0,0,.1.1,7.51,7.51,0,0,1,2.07,5.37A7.28,7.28,0,0,1,544.31,124.24Zm-12.51,2a9.68,9.68,0,0,0,7.37,3,9.86,9.86,0,0,0,7.41-3,10.42,10.42,0,1,0-14.78,0Zm23.44.76a8.25,8.25,0,0,0,14.15-6V109h-3.15v12.2a5.25,5.25,0,0,1-1.44,3.8,4.8,4.8,0,0,1-3.64,1.48,5,5,0,0,1-3.7-1.46,5.16,5.16,0,0,1-1.46-3.82V109h-3.06v12a8.12,8.12,0,0,0,2.3,6Zm32.6-2.54a6.82,6.82,0,0,1-4.94,2,6.64,6.64,0,0,1-5-2.15,8.12,8.12,0,0,1,0-10.75,6.7,6.7,0,0,1,5-2.13,6.86,6.86,0,0,1,4.94,2,8.58,8.58,0,0,1,0,11.09Zm2-12.56a8,8,0,0,0-3.16-2.5,10,10,0,0,0-4.22-.9,9.29,9.29,0,0,0-7,3,11.12,11.12,0,0,0,0,14.82,9.25,9.25,0,0,0,7,3,10,10,0,0,0,4.36-1,7.7,7.7,0,0,0,3.18-2.64v3.15h3V98.2h-3.15Z"/>
    <g id="NetForum">
      <path class="cls-2" d="M349.36,87.49V25.37h39.92v8.94H359.33V52.85H384v9H359.33v25.6Zm73.72-12.42a14.33,14.33,0,0,1-20.26.22l-.22-.22a14.88,14.88,0,0,1-4.1-10.69,15.07,15.07,0,0,1,4.15-10.73,14.12,14.12,0,0,1,20-.47c.16.16.32.31.47.47a15.12,15.12,0,0,1,4.14,10.78A14.78,14.78,0,0,1,423.08,75.07Zm-27.54,6.35a23,23,0,0,0,17.28,7.11,23.33,23.33,0,0,0,17.41-7.06,22.63,22.63,0,0,0,7.16-17.13,22.54,22.54,0,0,0-7.16-17,24.9,24.9,0,0,0-34.69,0,22.53,22.53,0,0,0-7.11,17.09,22.7,22.7,0,0,0,7.11,17ZM466.67,40.8a16.42,16.42,0,0,0-13.46,6.5v-6H444V87.49h9.89V62.83q0-6,3.76-9.41A14.11,14.11,0,0,1,467.44,50h3V41.28a15,15,0,0,0-3.77-.48ZM479.8,82.93a19.9,19.9,0,0,0,14.55,5.6,19.54,19.54,0,0,0,14.36-5.65q5.7-5.64,5.7-14.78V41.28h-9.89V68.86a10.42,10.42,0,0,1-2.87,7.62,9.8,9.8,0,0,1-7.3,2.92,10.16,10.16,0,0,1-7.53-2.92,10.3,10.3,0,0,1-2.92-7.62V41.28h-9.79V68.1Q474.11,77.33,479.8,82.93ZM588.32,45.28q-4.62-5-12.52-5-10.08,0-15.63,7.25-4.42-7.24-14-7.25a17.73,17.73,0,0,0-13.4,5.37V41.28h-9.23V87.49h9.89V60a10.82,10.82,0,0,1,2.82-7.77,9.66,9.66,0,0,1,7.34-3,9,9,0,0,1,7.07,3A11.28,11.28,0,0,1,553.29,60V87.49h9.89V59.54A10.07,10.07,0,0,1,566,52.15a9.84,9.84,0,0,1,7.35-2.87,8.92,8.92,0,0,1,7,2.91A11.36,11.36,0,0,1,583,60V87.49h10V58.65Q592.93,50.31,588.32,45.28Z"/>
      <g>
        <polygon class="cls-1" points="253.02 25.42 253.02 75.42 213.41 24.49 210.67 24.49 210.67 87.65 216.67 87.65 216.67 38.01 256.2 88.57 259.02 88.57 259.02 25.42 253.02 25.42"/>
        <path class="cls-1" d="M305.4,46.58a20.35,20.35,0,0,0-14.6-5.72,21.62,21.62,0,0,0-16.44,7,22.94,22.94,0,0,0-6.73,16.91,22.57,22.57,0,0,0,6.88,16.89,22.32,22.32,0,0,0,16.34,6.94h.5A23.27,23.27,0,0,0,309.74,80l.35-.41-3.79-3.92-.43.51A18.16,18.16,0,0,1,291.44,83a17.25,17.25,0,0,1-12.39-4.87,17.68,17.68,0,0,1-5.38-11.78h37.19l.11-.45a18.9,18.9,0,0,0,.39-4.59A19.62,19.62,0,0,0,305.4,46.58ZM273.91,61a17.38,17.38,0,0,1,5.55-10.34,15.72,15.72,0,0,1,11.15-4.37,14.79,14.79,0,0,1,10.72,4.22A13.9,13.9,0,0,1,305.38,61Z"/>
        <path class="cls-1" d="M342.83,82.4a32.38,32.38,0,0,1-6.08.72c-6.13,0-9.11-2.86-9.11-8.74V47.24h14.42V41.79H327.64V29.12h-5.91V41.79H314v5.45h7.77V74.57c0,4.65,1.27,8.19,3.79,10.51s6,3.49,10.49,3.49a26.83,26.83,0,0,0,7.09-.94l.44-.13V82.25Z"/>
      </g>
      <path class="cls-2" d="M607.53,41.12a6.24,6.24,0,0,1,2.37,2.33,6.85,6.85,0,0,1,0,6.68,6.21,6.21,0,0,1-2.37,2.32,6.77,6.77,0,0,1-6.53,0,6.36,6.36,0,0,1-2.37-2.32,6.85,6.85,0,0,1,0-6.68A6.31,6.31,0,0,1,601,41.12a6.77,6.77,0,0,1,6.53,0M607,51.51a4.91,4.91,0,0,0,1.89-1.92,5.61,5.61,0,0,0,.68-2.8,5.68,5.68,0,0,0-.68-2.82,4.8,4.8,0,0,0-1.89-1.9,5.78,5.78,0,0,0-5.44,0A4.92,4.92,0,0,0,599.62,44a5.95,5.95,0,0,0,0,5.6,4.92,4.92,0,0,0,1.92,1.92,5.78,5.78,0,0,0,5.44,0m.08-1.73a.47.47,0,0,1-.25.41,1.13,1.13,0,0,1-.6.14.8.8,0,0,1-.68-.43,2.28,2.28,0,0,1-.27-1.22,1.45,1.45,0,0,0-.25-.86.89.89,0,0,0-.74-.34h-1.13v2.3a.41.41,0,0,1-.18.32.56.56,0,0,1-.75,0,.41.41,0,0,1-.18-.32v-6a.43.43,0,0,1,.13-.29.42.42,0,0,1,.31-.15h2a3.2,3.2,0,0,1,1.86.45,1.72,1.72,0,0,1,.61,1.47,1.65,1.65,0,0,1-1.48,1.71,2,2,0,0,1,.65.69,1.83,1.83,0,0,1,.28,1,1.41,1.41,0,0,0,.09.64.4.4,0,0,0,.29.23.32.32,0,0,1,.29.32m-1.65-3.62a.94.94,0,0,0,.43-.82.86.86,0,0,0-.34-.79,2.14,2.14,0,0,0-1-.2h-1.33v2.09h1.19a1.88,1.88,0,0,0,1.08-.28"/>
    </g>
  </g>
  <g>
    <path class="cls-3" d="M195.34,76.66a52.72,52.72,0,0,1-52.72,52.72H89.89V76.66a52.73,52.73,0,0,1,105.45,0Z"/>
    <path class="cls-3" d="M0,84.44A44.94,44.94,0,0,1,44.93,39.51h0a44.94,44.94,0,0,1,45,44.91v45H44.94A44.94,44.94,0,0,1,0,84.44Z"/>
    <path class="cls-4" d="M52,15.72a53.59,53.59,0,0,1,75.8,75.77l-37.9,37.89L52,91.49a53.57,53.57,0,0,1,0-75.76Z"/>
    <path class="cls-5" d="M135.3,25.17A52.73,52.73,0,0,0,89.89,76.66v52.72h0l37.9-37.89A53.58,53.58,0,0,0,135.3,25.17Z"/>
    <path class="cls-6" d="M89.89,84.42A44.94,44.94,0,0,0,44.94,39.51h0a44.57,44.57,0,0,0-6.88.53A53.5,53.5,0,0,0,52,91.49l37.9,37.89v-45Z"/>
  </g>
</svg>
