<svg width="245" height="46" viewBox="0 0 245 46" fill="none" xmlns="http://www.w3.org/2000/svg">
<path d="M84.5503 2.95386H98.2438C106.472 2.95386 109.728 6.06602 109.728 13.5352C109.728 19.0064 107.954 22.1621 103.765 23.3945L111.01 36.4656H102.595L95.9346 24.1041H91.9448V36.4781H84.5503V2.95386ZM97.4658 17.7927C101.063 17.7927 102.346 16.5478 102.346 13.5539C102.346 10.56 101.063 9.2591 97.4658 9.2591H91.9448V17.7927H97.4658Z" fill="#2770B7"/>
<path d="M113.979 0.489014H121.274V12.8132C122.124 11.9261 123.153 11.2299 124.293 10.7706C125.432 10.3113 126.656 10.0995 127.884 10.1492C133.206 10.1492 135.976 13.3049 135.976 19.4172V36.4781H128.668V20.0583C128.668 17.6433 127.785 16.4606 125.811 16.4606C123.838 16.4606 122.363 17.5935 121.274 19.8591V36.4781H113.979V0.489014Z" fill="#2770B7"/>
<path d="M140.501 39.7334H143.358C144.74 39.7334 145.331 39.335 145.848 37.8101L146.389 36.1793L137.613 10.7405H145.35L150.149 26.8366L154.506 10.7405H161.85L152.725 38.6939C151.001 44.022 149.227 45.4473 144.198 45.4473H140.501V39.7334Z" fill="#2770B7"/>
<path d="M167.614 28.0814V16.2552H163.879V10.7404H167.776L168.168 4.32935H174.921V10.7404H180.249V16.2552H174.921V27.6457C174.921 30.0607 175.544 30.7578 177.635 30.7578H180.498V36.478H175.108C169.836 36.478 167.614 34.0132 167.614 28.0814Z" fill="#2770B7"/>
<path d="M182.944 0.489014H190.245V12.8132C191.092 11.9284 192.117 11.2334 193.252 10.7741C194.387 10.3149 195.607 10.1019 196.831 10.1492C202.153 10.1492 204.922 13.3049 204.922 19.4172V36.4781H197.64V20.0583C197.64 17.6433 196.75 16.4606 194.777 16.4606C192.804 16.4606 191.329 17.5935 190.245 19.8591V36.4781H182.944V0.489014Z" fill="#2770B7"/>
<path d="M208.583 10.7405H214.807L215.006 13.8962C215.791 12.6919 216.877 11.7138 218.157 11.0587C219.436 10.4036 220.865 10.0944 222.301 10.1616C225.6 10.1616 227.903 11.4065 229.204 13.8091C230.023 12.6328 231.125 11.682 232.409 11.0445C233.693 10.407 235.116 10.1033 236.548 10.1616C241.777 10.1616 244.684 13.2178 244.684 18.9877V36.4905H237.376V19.7658C237.376 17.4939 236.387 16.4606 234.613 16.4606C232.839 16.4606 231.457 17.4939 230.256 19.9587V36.4781H222.973V19.7658C222.973 17.4939 221.934 16.4606 220.16 16.4606C218.386 16.4606 217.01 17.5001 215.877 19.9898V36.5092H208.583V10.7405Z" fill="#2770B7"/>
<path d="M23.8633 19.6912C23.8641 18.2521 24.1387 16.8262 24.6724 15.4897H1.15071C0.934231 15.4976 0.728839 15.5875 0.576243 15.7412C0.423646 15.895 0.335285 16.101 0.329102 16.3176V23.0648C0.335285 23.2813 0.423646 23.4874 0.576243 23.6411C0.728839 23.7949 0.934231 23.8848 1.15071 23.8926H24.6724C24.1382 22.5563 23.8635 21.1303 23.8633 19.6912V19.6912Z" fill="#4DC0B9"/>
<path d="M64.6386 15.4897H41.123C42.1939 18.1883 42.1939 21.194 41.123 23.8926H64.6386C64.8611 23.8927 65.075 23.8065 65.2352 23.6521C65.3954 23.4977 65.4895 23.2871 65.4975 23.0648V16.3176C65.4895 16.0952 65.3954 15.8846 65.2352 15.7302C65.075 15.5758 64.8611 15.4896 64.6386 15.4897V15.4897Z" fill="#4DC0B9"/>
<path d="M32.8944 24.378C35.483 24.378 37.5814 22.2796 37.5814 19.6911C37.5814 17.1026 35.483 15.0042 32.8944 15.0042C30.3059 15.0042 28.2075 17.1026 28.2075 19.6911C28.2075 22.2796 30.3059 24.378 32.8944 24.378Z" fill="#2770B7"/>
<path d="M43.0899 6.20923C43.0914 4.77018 43.3659 3.34447 43.8991 2.00781H9.83956C9.62246 2.01555 9.41636 2.10524 9.26276 2.25885C9.10915 2.41245 9.01945 2.61855 9.01172 2.83565V9.58904C9.02098 9.80504 9.11136 10.0096 9.26481 10.1619C9.41826 10.3142 9.62349 10.403 9.83956 10.4107H43.868C43.3443 9.07225 43.0802 7.64639 43.0899 6.20923V6.20923Z" fill="#4DC0B9"/>
<path d="M52.0907 10.8961C54.6792 10.8961 56.7776 8.79765 56.7776 6.20913C56.7776 3.62062 54.6792 1.52222 52.0907 1.52222C49.5022 1.52222 47.4038 3.62062 47.4038 6.20913C47.4038 8.79765 49.5022 10.8961 52.0907 10.8961Z" fill="#2770B7"/>
<path d="M22.7364 33.0608C22.7332 34.4997 22.4586 35.9251 21.9272 37.2622H55.9556C56.1721 37.2544 56.3775 37.1645 56.5301 37.0107C56.6827 36.857 56.7711 36.6509 56.7773 36.4344V29.6997C56.7711 29.4831 56.6827 29.2771 56.5301 29.1233C56.3775 28.9696 56.1721 28.8796 55.9556 28.8718H21.9272C22.456 30.2054 22.7304 31.6262 22.7364 33.0608V33.0608Z" fill="#4DC0B9"/>
<path d="M13.6986 37.7603C16.2871 37.7603 18.3856 35.6619 18.3856 33.0734C18.3856 30.4849 16.2871 28.3865 13.6986 28.3865C11.1101 28.3865 9.01172 30.4849 9.01172 33.0734C9.01172 35.6619 11.1101 37.7603 13.6986 37.7603Z" fill="#2770B7"/>
</svg>
